<svg xmlns="http://www.w3.org/2000/svg" viewBox="-4 -4 56 56" x="0px" y="0px">
	<circle style="fill:#2f3066" cx="24" cy="24" r="28" />
	<path fill="#ffffff" d="M41.37,10.07l-10-4-.14,0-.17,0-.22,0h-.11L17.05,9.94,7.37,6.07A1,1,0,0,0,6,7V37a1,1,0,0,0,.63.93l10,4h0A.94.94,0,0,0,17,42h0a.75.75,0,0,0,.26,0L31,38.06l9.68,3.87A.94.94,0,0,0,41,42a1,1,0,0,0,1-1V11A1,1,0,0,0,41.37,10.07ZM40,39.52l-8.63-3.45-.14,0-.17,0-.22,0h-.11l-13.68,3.9L8,36.32V28.94l.08,0a1,1,0,0,0,.55.17,1,1,0,0,0,.55-1.84C8.66,27,8.27,26.7,8,26.5v-18l8.63,3.45h0A1,1,0,0,0,17,12h.05a.83.83,0,0,0,.22,0L31,8.06,40,11.68ZM25"/>
</svg>