<svg xmlns="http://www.w3.org/2000/svg" viewBox="-16 -16 80 80" x="0px" y="0px" height="1152px" width="1152px">
	<path fill="#ffffff" d="M41.37,10.07l-10-4-.14,0-.17,0-.22,0h-.11L17.05,9.94,7.37,6.07A1,1,0,0,0,6,7V37a1,1,0,0,0,.63.93l10,4h0A.94.94,0,0,0,17,42h0a.75.75,0,0,0,.26,0L31,38.06l9.68,3.87A.94.94,0,0,0,41,42a1,1,0,0,0,1-1V11A1,1,0,0,0,41.37,10.07ZM40,39.52l-8.63-3.45-.14,0-.17,0-.22,0h-.11l-13.68,3.9L8,36.32V28.94l.08,0a1,1,0,0,0,.55.17,1,1,0,0,0,.55-1.84C8.66,27,8.27,26.7,8,26.5v-18l8.63,3.45h0A1,1,0,0,0,17,12h.05a.83.83,0,0,0,.22,0L31,8.06,40,11.68ZM25,20a1.85,1.85,0,0,0,.14.62,1,1,0,0,1-.57,1.29.92.92,0,0,1-.36.07,1,1,0,0,1-.93-.64A3.62,3.62,0,0,1,23,20c0-.91.46-2.17,2.62-3a1,1,0,1,1,.73,1.87C25.84,19.05,25,19.46,25,20Zm-.24,10.58a1,1,0,0,1-.39,1.36A9.67,9.67,0,0,1,20,33.11h0a1,1,0,0,1,0-2,7.73,7.73,0,0,0,3.45-.92A1,1,0,0,1,24.76,30.58Zm-7.83,1.29a1,1,0,0,1-1,.74l-.26,0a23.35,23.35,0,0,1-4-1.51,1,1,0,1,1,.86-1.8,21.59,21.59,0,0,0,3.63,1.37A1,1,0,0,1,16.93,31.87ZM27.16,24A6.32,6.32,0,0,1,28.11,27a4.14,4.14,0,0,1-.38,1.72,1,1,0,0,1-.91.59.92.92,0,0,1-.42-.1,1,1,0,0,1-.49-1.32,2,2,0,0,0,.2-.89A4.32,4.32,0,0,0,25.42,25a1,1,0,0,1,1.74-1ZM32,16a1,1,0,0,1,0,2s-.82,0-1.91.1H30a1,1,0,0,1-.09-2C31.09,16,32,16,32,16Zm1.88,1.71.71-.71-.71-.71a1,1,0,0,1,1.41-1.41l.71.71.71-.71a1,1,0,0,1,1.41,1.41l-.71.71.71.71a1,1,0,0,1,0,1.41,1,1,0,0,1-1.41,0L36,18.41l-.71.71a1,1,0,0,1-1.41,0A1,1,0,0,1,33.88,17.71Z"/>
</svg>